<svg width="457" height="270" viewBox="0 0 457 270" fill="none" xmlns="http://www.w3.org/2000/svg">
<path d="M38.8799 190.777C38.735 188.275 37.4281 179.251 42.4315 178.962C48.5294 178.608 52.2476 185.923 59.44 185.507C75.5448 184.574 84.805 165.683 91.3002 153.227C104.263 127.846 115.765 101.608 129.703 76.7977C129.685 76.485 129.778 75.3814 129.769 75.2251C129.406 68.9708 115.509 70.0894 112.069 70.2886C88.3025 71.6649 70.8188 92.1308 72.177 115.584C72.2404 116.679 72.6956 121.83 72.759 122.924C73.3096 124.304 76.3775 128.519 77.3157 128.465L87.6353 127.867C87.7916 127.858 88.673 129.533 88.8746 130.306C88.8837 130.462 88.929 131.244 88.938 131.4C89.4632 140.469 79.0005 146.723 71.339 147.166C55.8596 148.063 48.1287 133.763 47.35 120.317C45.213 83.4164 82.1056 59.4733 115.097 57.5627C123.697 57.0647 131.548 59.9045 139.679 59.4336C148.279 58.9356 154.044 50.1301 163.425 49.5868C166.709 49.3967 172.218 49.7052 172.462 53.9268C172.897 61.432 154.707 58.8771 155.233 67.9458C155.604 74.3565 168.286 84.7606 171.316 91.0173C176.502 102.012 177.836 111.505 178.533 123.545C180.39 155.598 164.71 204.512 125.621 206.775C114.519 207.418 103.269 200.069 102.572 188.029C102.418 185.371 102.86 184.875 105.518 184.721C109.427 184.495 113.095 185.537 117.161 185.302C147.65 183.536 159.925 146.272 158.44 120.629C158.096 114.688 152.376 83.6425 143.777 84.1405C142.213 84.2311 141.468 84.9018 140.776 86.5106C138.546 91.3462 128.869 113.87 126.952 118.688C125.293 122.549 112.968 153.541 111.3 157.246C102.93 177.968 91.1292 209.871 64.8611 211.392C52.0398 212.135 39.6948 204.849 38.8799 190.777ZM177.312 171.307C176.054 149.574 198.493 100.896 222.884 99.4833C228.357 99.1664 231.019 104.503 235.71 104.231C239.775 103.996 242.18 99.464 247.027 99.1833C249.841 99.0203 253.805 99.7321 254.022 103.485C254.665 114.586 228.898 141.022 229.958 159.316C230.103 161.818 230.644 163.042 233.302 162.888C242.84 162.335 248.18 146.181 253.979 140.668C254.301 140.806 254.962 141.396 255.137 141.699C255.137 141.699 255.155 142.012 255.164 142.168C255.825 153.582 233.451 181.705 220.629 182.447C212.655 182.909 211.57 172.304 207.818 172.521C207.661 172.531 206.88 172.576 206.732 172.741C201.402 178.227 196.247 184.016 188.272 184.478C180.611 184.922 177.693 177.874 177.312 171.307ZM196.654 161.245C196.663 161.401 196.681 161.714 196.681 161.714C197.231 163.094 198.802 165.827 200.521 165.727C209.747 165.193 229.985 119.153 229.704 114.306C229.559 111.804 228.651 109.66 225.68 109.832C211.452 110.656 196.038 150.613 196.654 161.245ZM247.75 165.189C246.183 138.139 275.562 63.0168 308.085 61.1333C314.183 60.7802 318.447 63.9846 318.8 70.0826C320.901 106.358 264.104 122.511 266.024 155.659C266.196 158.63 267.177 162.024 271.086 161.798C281.092 161.218 294.95 143.159 299.673 138.022L301.237 137.931C302.006 151.222 274.821 180.25 261.218 181.038C252.149 181.563 248.202 173.007 247.75 165.189ZM304.157 71.8719C294.463 72.4333 273.953 113.783 274.424 121.913C281.616 121.497 307.079 84.4101 306.518 74.7159C306.418 72.996 306.19 71.7542 304.157 71.8719ZM294.011 157.333C292.553 132.159 312.535 95.2327 340.21 93.63C347.872 93.1863 355.429 96.357 355.936 105.113C357.747 136.384 311.479 133.887 312.493 151.399C312.901 158.435 315.418 161.27 322.611 160.853C337.621 159.984 348.984 144.893 357.648 134.665C357.648 134.665 357.96 134.646 358.117 134.637C358.273 134.628 358.586 134.61 358.586 134.61C358.907 134.748 359.569 135.338 359.744 135.641C353.132 154.222 334.985 176.766 313.564 178.007C300.43 178.767 294.681 168.903 294.011 157.333ZM339.605 102.137C329.911 102.698 315.756 123.756 316.317 133.45C327.419 132.807 344.17 118.659 343.491 106.932C343.337 104.274 342.888 101.947 339.605 102.137ZM336.385 206.806C334.954 182.102 376.835 184.697 375.513 161.869L373.637 161.977C368.307 167.463 362.736 174.218 354.606 174.689C348.039 175.069 343.774 171.865 343.367 164.828C342.497 149.818 356.043 131.777 361.783 119.835C364.852 113.225 366.306 92.2757 375.218 91.7595C379.44 91.5151 385.343 93.2127 385.65 98.5288C386.782 118.074 361.476 133.502 362.59 152.733C362.69 154.453 364.206 156.248 365.926 156.149C388.128 154.863 392.105 90.7816 414.307 89.4958C417.278 89.3238 421.71 90.0084 421.928 93.761C422.553 104.55 395.687 136.384 396.9 157.336C397.056 157.327 397.222 157.474 397.378 157.465C397.682 157.29 399.053 156.583 399.347 156.253C406.003 149.278 413.326 137.559 420.947 130.999C420.947 130.999 421.259 130.981 421.416 130.972C421.572 130.963 421.885 130.944 422.041 130.935C422.207 131.083 423.025 131.663 423.043 131.976C423.043 131.976 423.217 132.279 423.226 132.436C424.068 146.977 394.996 167.8 389.147 177.865C379.715 193.786 377.531 218.386 353.921 219.753C344.852 220.279 336.964 216.813 336.385 206.806ZM350.663 201.43C350.79 203.619 351.452 204.208 353.641 204.081C359.113 203.765 365.441 193.828 365.16 188.981C359.218 189.325 353.925 195.437 350.729 199.857C350.591 200.179 350.654 201.274 350.663 201.43Z" fill="#F3EEDE"/>
</svg>
