<svg width="263" height="166" viewBox="0 0 263 166" fill="none" xmlns="http://www.w3.org/2000/svg">
<path d="M34.0822 102.331C34.0077 101.045 33.3354 96.4027 35.9093 96.2536C39.0462 96.0719 40.9589 99.835 44.6589 99.6207C52.9436 99.1409 57.7072 89.4227 61.0485 83.015C67.7172 69.9583 73.6339 56.4609 80.8038 43.698C80.7945 43.5371 80.8423 42.9694 80.8376 42.889C80.6513 39.6716 73.502 40.247 71.7324 40.3495C59.5065 41.0575 50.5124 51.5857 51.2111 63.6508C51.2437 64.2139 51.4779 66.8635 51.5105 67.4266C51.7937 68.1365 53.3719 70.3048 53.8545 70.2769L59.1632 69.9694C59.2436 69.9648 59.697 70.8262 59.8008 71.2238C59.8054 71.3042 59.8287 71.7064 59.8334 71.7868C60.1035 76.452 54.7213 79.669 50.78 79.8973C42.817 80.3584 38.8401 73.0026 38.4395 66.0852C37.3402 47.1028 56.3186 34.7859 73.2902 33.803C77.7141 33.5468 81.7532 35.0077 85.9358 34.7655C90.3596 34.5093 93.3255 29.9795 98.1515 29.7C99.8406 29.6022 102.674 29.7609 102.8 31.9326C103.024 35.7935 93.6667 34.4791 93.9369 39.1443C94.1279 42.4421 100.652 47.7943 102.21 51.0129C104.878 56.6691 105.565 61.5523 105.923 67.7457C106.878 84.2347 98.8124 109.397 78.7039 110.562C72.9931 110.892 67.2055 107.112 66.8469 100.918C66.7677 99.5509 66.995 99.2956 68.3624 99.2164C70.3732 99.1 72.2605 99.6363 74.3518 99.5152C90.0364 98.6069 96.3511 79.4372 95.5871 66.246C95.4101 63.1895 92.4676 47.2191 88.0438 47.4753C87.2394 47.5219 86.8559 47.8669 86.5003 48.6945C85.3531 51.1821 80.3748 62.7689 79.3885 65.2472C78.5351 67.2335 72.195 83.1765 71.337 85.0824C67.0314 95.7425 60.9605 112.154 47.4476 112.937C40.852 113.319 34.5015 109.571 34.0822 102.331ZM105.295 92.316C104.648 81.1357 116.191 56.0946 128.739 55.368C131.554 55.2049 132.923 57.9503 135.336 57.8105C137.428 57.6894 138.665 55.3581 141.158 55.2137C142.606 55.1298 144.645 55.496 144.757 57.4264C145.087 63.1372 131.832 76.7368 132.377 86.1475C132.452 87.4345 132.73 88.064 134.098 87.9848C139.004 87.7007 141.751 79.3905 144.734 76.5545C144.9 76.6256 145.24 76.9287 145.33 77.0849C145.33 77.0849 145.339 77.2458 145.344 77.3262C145.684 83.1979 134.174 97.6648 127.579 98.0468C123.476 98.2844 122.918 92.8288 120.988 92.9406C120.908 92.9453 120.505 92.9686 120.43 93.0537C117.688 95.8757 115.036 98.8539 110.933 99.0915C106.992 99.3197 105.491 95.6943 105.295 92.316ZM115.245 87.1397C115.25 87.2202 115.259 87.381 115.259 87.381C115.542 88.091 116.35 89.4968 117.235 89.4456C121.98 89.1708 132.391 65.4865 132.247 62.9931C132.172 61.7061 131.705 60.6033 130.177 60.6918C122.857 61.1157 114.928 81.6702 115.245 87.1397ZM141.53 89.1685C140.724 75.2534 155.837 36.6087 172.568 35.6398C175.705 35.4582 177.898 37.1066 178.08 40.2435C179.161 58.9043 149.943 67.214 150.931 84.2661C151.019 85.7943 151.524 87.5406 153.535 87.4241C158.682 87.126 165.811 77.8357 168.241 75.1932L169.045 75.1466C169.441 81.9835 155.456 96.9166 148.458 97.3218C143.793 97.592 141.763 93.1902 141.53 89.1685ZM170.547 41.164C165.56 41.4528 155.009 62.724 155.252 66.9066C158.952 66.6923 172.051 47.6139 171.762 42.627C171.711 41.7423 171.593 41.1034 170.547 41.164ZM165.328 85.1271C164.578 72.1772 174.857 53.1814 189.094 52.3569C193.035 52.1287 196.923 53.7597 197.184 58.264C198.115 74.3509 174.314 73.066 174.836 82.0746C175.045 85.6942 176.34 87.1525 180.04 86.9383C187.762 86.4911 193.607 78.7278 198.064 73.4661C198.064 73.4661 198.225 73.4568 198.305 73.4521C198.386 73.4475 198.547 73.4381 198.547 73.4381C198.712 73.5093 199.053 73.8124 199.142 73.9686C195.741 83.5272 186.406 95.1243 175.386 95.7624C168.63 96.1537 165.673 91.0792 165.328 85.1271ZM188.783 56.733C183.796 57.0218 176.514 67.8543 176.803 72.8412C182.514 72.5105 191.131 65.2323 190.782 59.1997C190.702 57.8323 190.472 56.6351 188.783 56.733ZM187.126 110.578C186.39 97.8691 207.935 99.2039 207.255 87.4606L206.289 87.5165C203.547 90.3385 200.682 93.8133 196.499 94.0555C193.121 94.2511 190.927 92.6027 190.718 88.9832C190.271 81.2615 197.239 71.9805 200.192 65.8374C201.77 62.4371 202.518 51.6602 207.103 51.3947C209.275 51.2689 212.311 52.1422 212.47 54.877C213.052 64.9313 200.034 72.8678 200.607 82.7612C200.658 83.646 201.438 84.5693 202.323 84.518C213.744 83.8566 215.79 50.8916 227.211 50.2302C228.74 50.1417 231.02 50.4939 231.131 52.4243C231.453 57.9742 217.632 74.3504 218.257 85.1286C218.337 85.124 218.422 85.1997 218.503 85.1951C218.659 85.1053 219.364 84.7417 219.516 84.5715C222.94 80.9836 226.706 74.9548 230.627 71.5803C230.627 71.5803 230.788 71.571 230.868 71.5664C230.948 71.5617 231.109 71.5524 231.19 71.5477C231.275 71.6235 231.696 71.9219 231.705 72.0828C231.705 72.0828 231.795 72.239 231.799 72.3195C232.233 79.7998 217.277 90.5118 214.268 95.6897C209.416 103.88 208.293 116.535 196.147 117.238C191.482 117.508 187.424 115.725 187.126 110.578ZM194.471 107.812C194.537 108.938 194.877 109.241 196.003 109.176C198.818 109.013 202.073 103.901 201.929 101.408C198.872 101.585 196.149 104.729 194.505 107.003C194.434 107.168 194.467 107.731 194.471 107.812Z" fill="#3563BE"/>
<path d="M105 107.864C106.134 107.719 106.927 108.266 106.993 109.407C107.386 116.197 96.8251 119.971 97.1844 126.175C97.2166 126.731 97.3991 127.356 98.1256 127.262C99.2939 127.113 100.743 125.648 101.878 124.324C103.225 121.22 105.718 118.26 105.749 114.845C106.125 114.266 106.471 114.162 107.111 114.079C107.954 113.971 108.846 114.211 108.904 115.206C109.121 118.952 104.416 122.18 104.626 125.809C104.647 126.16 105.038 126.346 105.328 126.308C109.05 125.831 110.513 113.643 114.438 113.139C115.165 113.046 115.637 113.103 115.681 113.864C115.686 113.953 115.678 114.307 115.681 114.365C114 117.205 111.161 121.284 111.352 124.591C111.364 124.796 111.348 125.536 111.842 125.472C112.702 125.362 113.727 123.95 114.5 122.718C115.72 119.595 116.778 116.463 117.87 113.288C118.074 112.761 118.679 112.595 119.115 112.539C120.19 112.401 120.707 113.72 121.317 113.642C122.393 113.504 123.128 112.024 124.436 111.856C125.628 111.703 126.285 112.414 126.864 113.313C126.894 113.309 127.041 113.32 127.07 113.316C128.32 113.155 129.147 111.251 130.629 111.061C131.56 110.941 132.02 111.295 132.645 111.981C132.654 112.129 132.719 112.738 132.726 112.855C132.934 116.455 128.765 119.319 128.961 122.714C128.975 122.948 128.94 123.366 129.4 123.219C131.147 122.688 131.834 119.814 133.178 118.903C134.723 115.374 136.253 111.836 137.59 108.222C138.021 107.075 138.015 104.953 138.903 104.102L139.689 104.001C140.59 103.885 141.268 103.946 141.327 104.97C141.332 105.058 141.356 105.468 141.332 105.56C141.052 106.304 139.759 109.772 139.48 110.515C139.456 110.607 139.334 111.035 139.31 111.126C139.339 111.122 139.485 111.133 139.515 111.129C140.678 110.98 141.511 109.664 142.849 109.492C144.506 109.28 144.935 110.109 145.024 111.661C145.151 113.855 144.311 116.027 143.434 118.086C143.434 118.086 143.437 118.144 143.439 118.173C143.456 118.466 143.719 118.462 143.923 118.436C144.469 118.365 144.942 117.908 145.335 117.451C146.102 115.799 147.013 114.225 147.559 113.016C148.182 111.638 147.932 108.84 149.764 108.605C150.636 108.493 151.415 108.805 151.468 109.713C151.678 113.342 147.558 116.554 147.768 120.183L147.795 120.651C147.829 120.735 148.128 120.815 148.186 120.807C149.514 120.421 150.421 118.164 151.279 116.921C152.319 114.172 153.256 111.414 154.216 108.622C154.42 108.095 155.026 107.929 155.462 107.873C156.799 107.702 156.978 109.271 157.792 109.166C158.926 109.021 159.852 107.31 161.16 107.142C162.439 106.978 163.365 107.773 163.438 109.031C163.636 112.455 159.268 115.434 159.456 118.683C159.474 118.976 159.641 119.337 160.018 119.289C161.916 119.045 162.497 115.708 163.944 114.789C165.454 110.618 168.541 105.988 171.674 105.586C172.663 105.459 173.188 106.423 174.031 106.315C174.816 106.214 175.35 105.32 176.222 105.208C176.949 105.115 177.421 105.172 177.465 105.933C177.47 106.021 177.491 106.372 177.465 106.435C175.838 109.202 173.355 113.212 172.821 116.588C173.069 116.044 173.435 115.437 173.903 114.854C174.563 114.039 175.342 113.18 176.346 112.495C177.288 111.822 178.954 111.219 180.337 111.978C183.254 114.067 182.984 117.045 182.982 119.565C182.871 121.383 182.498 123.182 181.86 124.925C181.794 125.104 181.725 125.283 181.653 125.46C181.157 126.941 180.39 128.377 179.692 129.309C179.12 130.082 178.583 130.563 178.11 130.944C177.814 131.18 177.54 131.378 177.266 131.577C177.238 131.598 177.209 131.619 177.18 131.64C177.026 131.753 176.817 131.908 176.564 132.083C175.538 132.815 173.57 133.889 171.641 134.25C170.794 134.423 169.801 134.504 168.88 134.49C167.557 134.475 166.384 134.284 165.784 134.245C164.731 134.177 163.569 133.927 162.571 133.667C161.619 133.42 160.802 133.173 160.321 133.098C159.742 133.008 159.277 132.851 158.591 132.616C158.115 132.453 157.532 132.251 156.736 132.01C155.814 131.73 155.176 131.507 154.63 131.322C153.865 131.064 153.284 130.874 152.382 130.741C151.38 130.593 150.343 130.446 149.536 130.295C149.351 130.26 149.149 130.227 148.938 130.198C148.758 130.172 148.556 130.149 148.335 130.128C147.701 130.067 147.153 130.036 146.546 129.979C146.1 129.935 145.705 129.863 145.344 129.802C145.226 129.782 145.134 129.763 145.036 129.748C144.67 129.742 144.288 129.74 143.893 129.741C143.829 129.751 143.76 129.761 143.688 129.772C143.344 129.828 142.943 129.899 142.413 129.94C141.544 130.006 140.893 129.987 140.096 129.976C139.497 129.967 138.906 129.96 138.178 130.002C137.671 130.032 137.155 130.081 136.6 130.134C135.773 130.214 134.987 130.297 134.428 130.31C134.219 130.315 134.038 130.287 133.858 130.261L133.856 130.261C133.844 130.259 133.832 130.258 133.82 130.256C132.467 130.374 131.091 130.508 129.748 130.652C129.631 130.672 129.511 130.691 129.393 130.711C128.814 130.805 128.253 130.9 127.894 130.996C127.507 131.1 126.5 131.232 125.462 131.376C124.781 131.471 124.072 131.572 123.491 131.672C123.155 131.729 122.834 131.724 122.503 131.72C122.194 131.716 121.876 131.712 121.53 131.76C121.357 131.784 121.171 131.821 120.971 131.861C120.795 131.897 120.612 131.934 120.418 131.967C120.238 131.997 119.836 132.022 119.32 132.057C119 132.078 118.637 132.104 118.256 132.135C117.254 132.283 116.252 132.435 115.249 132.592C115.042 132.654 114.864 132.723 114.724 132.8C114.623 132.855 114.538 132.915 114.451 132.977C114.333 133.062 114.212 133.149 114.041 133.229C113.908 133.292 113.748 133.332 113.639 133.329C113.588 133.328 113.548 133.317 113.512 133.308C113.471 133.297 113.435 133.288 113.391 133.295C113.36 133.3 113.327 133.315 113.288 133.335C113.225 133.366 113.144 133.408 113.016 133.428C112.54 133.5 111.998 133.57 111.469 133.64C110.882 133.717 110.309 133.794 109.849 133.875C109.336 133.965 108.603 134.039 107.874 134.116C107.357 134.171 106.841 134.228 106.404 134.291C105.973 134.353 105.541 134.454 105.105 134.556C104.586 134.678 104.09 134.797 103.665 134.838C103.579 134.846 103.468 134.82 103.329 134.787C103.231 134.763 103.118 134.736 102.99 134.715C102.449 134.819 101.903 134.925 101.368 135.03C101.35 135.04 101.332 135.05 101.313 135.06L101.312 135.061C100.896 135.298 100.32 135.622 99.4535 135.685C99.2344 135.701 99.091 135.674 98.9626 135.65C98.8367 135.626 98.7237 135.605 98.5682 135.63C98.3918 135.658 98.1916 135.735 97.9626 135.821C97.6442 135.942 97.2927 136.078 96.9286 136.114C96.9038 136.117 96.8767 136.12 96.849 136.123C96.5816 136.15 96.2101 136.187 95.7977 136.183C94.6445 136.441 93.5172 136.71 92.3985 137.001C90.5124 137.496 88.6638 138.04 86.9038 138.755C86.1444 139.064 85.4134 139.327 84.8236 139.484L84.3348 139.604C83.7939 139.721 83.4545 139.695 83.2882 139.495C83.1083 139.266 83.201 138.79 83.7641 138.158C84.2519 137.573 85.1046 136.953 86.0393 136.499C87.5126 135.778 89.1001 135.164 90.5847 134.646C90.6642 134.614 90.7446 134.582 90.8251 134.551C91.4429 134.316 91.9436 134.082 92.4934 133.838C92.6184 133.783 92.7448 133.728 92.8722 133.673C93.8265 133.254 95.7412 132.831 96.7773 132.626C96.7964 132.622 96.816 132.618 96.8352 132.614C97.0848 132.564 97.3218 132.511 97.6014 132.45C98.2442 132.311 99.1452 132.112 100.988 131.832C101.52 131.722 102.064 131.614 102.603 131.51C108.384 130.407 114.202 129.688 120.005 129.153C120.078 129.144 120.152 129.134 120.227 129.124C121.684 128.939 123.48 128.729 124.622 128.668C126.056 128.592 127.052 128.564 127.85 128.547C132.455 128.256 137.068 128.046 141.678 127.99C143.151 127.975 144.57 127.977 146.04 128.022C147.077 128.055 148.265 128.115 149.33 128.256C149.575 128.289 149.82 128.324 150.063 128.361C150.84 128.453 151.577 128.556 152.253 128.665C153.207 128.819 154.044 128.983 154.728 129.145C156.371 129.535 158.168 130.126 159.49 130.543C159.705 130.611 159.912 130.676 160.101 130.734C161.168 131.011 162.232 131.271 163.295 131.483C163.362 131.511 163.43 131.539 163.499 131.567C164.359 131.911 165.48 132.156 167.241 132.256C168.006 132.293 168.895 132.293 169.926 132.171C170.589 132.089 170.934 132.072 171.22 132.06C171.304 132.056 171.383 132.051 171.463 132.042C171.734 132.013 172.004 131.89 172.314 131.733C172.714 131.528 173.177 131.271 173.836 131.025C174.865 130.634 175.544 130.189 176.051 129.794C176.544 129.4 176.815 129.044 177.035 128.738C177.16 128.562 177.268 128.398 177.383 128.238C177.764 127.721 178.33 126.994 178.738 126.401C179.072 125.939 179.504 124.874 179.704 124.037C179.783 123.722 179.916 123.302 180.046 122.801C180.18 122.284 180.309 121.678 180.375 121.022C180.527 119.371 180.438 118.507 180.37 117.839C180.348 117.646 180.323 117.471 180.295 117.302C180.203 116.743 180.057 116.096 179.813 115.526C179.533 114.837 179.089 114.425 178.875 114.401C178.641 114.124 177.722 114.554 176.814 115.3C175.281 117.868 172.987 119.736 171.356 122.344C169.399 125.485 169.276 129.923 164.798 130.498C163.17 130.707 161.846 130.11 161.745 128.354C161.475 123.701 169.045 123.407 168.825 119.603C167.574 119.763 166.783 121.781 165.184 121.987C165.067 122.002 164.458 122.08 164.31 122.069C163.163 121.479 163.064 120.784 162.996 119.614C162.969 119.145 163.003 118.609 163.089 118.026C161.627 120.294 159.253 122.747 157.857 122.927C156.548 123.095 155.814 122.57 155.736 121.224C155.503 117.185 160.574 113.203 160.378 109.808C160.363 109.544 160.367 109.13 159.936 109.274C157.46 110.005 155.78 113.876 154.85 116.03C154.564 116.656 152.375 121.83 152.088 122.458C151.699 123.334 151.127 123.585 150.255 123.697C149.703 123.767 148.835 123.938 148.79 123.177C148.789 123.148 148.806 122.939 148.803 122.88C148.839 122.802 148.872 122.724 148.908 122.646C147.992 123.609 147.051 124.314 146.314 124.409C144.947 124.584 144.061 123.932 143.981 122.556C143.932 121.718 144.094 120.81 144.376 119.884C143.272 120.611 142.014 121.199 141.311 121.896C139.897 123.286 138.73 125.383 136.637 125.652C135.125 125.846 135.08 125.585 133.841 124.418C133.081 125.459 132.874 125.927 131.798 126.066C131.129 126.151 130.602 126.16 130.558 125.4C130.524 124.804 130.636 124.625 130.888 124.119C129.606 125.574 128.17 126.738 127.151 126.868C127.034 126.883 126.425 126.961 126.277 126.951C125.363 126.331 125.234 126.141 125.172 125.059C124.926 120.815 129.942 117.399 129.711 113.419C127.763 113.669 126.159 116.322 125.38 118.044C124.832 119.206 122.43 124.762 121.942 125.945C121.476 127.007 120.858 127.47 119.782 127.608C119.23 127.679 118.503 127.772 118.462 127.069C118.435 126.601 118.523 126.59 118.809 125.964C120.134 123.052 123.754 117.781 123.547 114.21C123.082 114.27 122.778 114.073 122.449 114.469C121.652 115.367 120.322 116.688 119.723 117.974C119.566 118.289 118.839 119.916 118.683 120.26C118.372 120.949 116.056 126.463 115.742 127.124C115.353 127.999 114.781 128.25 113.909 128.362C113.356 128.433 112.487 128.603 112.443 127.842C112.442 127.811 112.459 127.604 112.455 127.546C112.544 127.354 112.629 127.162 112.716 126.971C111.675 128.125 110.574 128.996 109.738 129.103C107.5 129.391 107.74 126.973 107.043 127.062L106.838 127.088C105.822 128.25 104.737 129.745 103.138 129.951C101.917 130.107 101.125 129.59 101.047 128.244C101.032 127.982 101.034 127.722 101.05 127.465C99.4816 129.286 97.567 130.843 96.2922 131.007C94.6059 131.224 93.8708 129.667 93.786 128.204C93.7487 127.56 93.8053 126.764 93.9432 125.863C92.7071 126.889 90.929 127.579 90.0604 128.474C88.5922 129.931 87.5959 131.946 85.3861 132.229C83.9903 132.408 83.891 132.215 82.7764 131.178C82.7711 131.176 82.7152 131.157 82.6875 131.16C80.7105 131.415 81.1694 139.847 78.4943 140.19C77.4767 140.321 76.639 140.016 76.5779 138.962C76.5271 138.084 76.8862 137.212 77.2201 136.403L83.5669 121.053C84.1063 119.745 83.8345 117.067 85.5501 116.847C86.6547 116.705 87.3277 118.211 87.8801 118.14C89.0723 117.987 89.9101 116.258 91.3059 116.079C92.7014 115.9 93.6739 116.512 93.7604 118.005C93.8923 120.288 92.0325 122.561 92.1546 124.668C92.1732 124.99 92.3816 125.051 92.7013 125.01C93.2553 124.939 93.9853 124.096 94.4074 123.601C95.9867 117.296 100.317 108.465 105 107.864ZM166.92 124.653C165.844 124.791 164.976 125.994 164.406 126.774C164.38 126.836 164.392 127.04 164.394 127.071C164.418 127.48 164.541 127.583 164.919 127.534C164.978 127.527 165.179 127.472 165.208 127.468C165.869 126.734 166.982 125.736 166.92 124.653ZM90.3433 118.177C87.93 118.487 83.9956 125.921 84.107 127.853C84.1138 127.97 84.1751 128.523 84.2109 128.636C84.3801 129.027 84.6422 128.993 84.9621 128.952C87.3464 128.646 90.9881 120.719 90.8898 119.022C90.883 118.905 90.827 118.441 90.8218 118.353C90.7484 118.097 90.5177 118.155 90.3433 118.177ZM141.595 111.629C139.008 111.961 136.187 118.397 135.37 120.477C135.377 120.594 135.375 121.065 135.381 121.183C135.426 121.944 135.515 122.463 136.358 122.355C138.568 122.071 142.466 114.524 142.332 112.212C142.308 111.803 141.973 111.581 141.595 111.629ZM171.962 107.524C169.345 107.86 166.46 115.188 166.598 117.588C166.622 117.998 166.823 118.415 167.317 118.352C169.323 118.093 172.989 109.575 172.923 108.433C172.884 107.76 172.689 107.431 171.962 107.524ZM104.27 109.933C102.467 110.165 98.6565 118.2 98.7438 119.723C100.081 119.552 104.814 112.252 104.709 110.437C104.69 110.116 104.648 109.884 104.27 109.933ZM152.401 102.546C153.244 102.438 153.786 102.693 153.842 103.658C153.918 104.975 152.658 106.494 151.379 106.658C150.652 106.751 150.275 106.298 150.236 105.625C150.16 104.308 151.034 102.721 152.401 102.546Z" fill="#3563BE"/>
</svg>
