<svg width="457" height="270" viewBox="0 0 457 270" fill="none" xmlns="http://www.w3.org/2000/svg">
<path d="M38.8794 190.777C38.7345 188.275 37.4276 179.251 42.431 178.962C48.5289 178.608 52.2471 185.923 59.4395 185.507C75.5443 184.574 84.8045 165.683 91.2997 153.227C104.263 127.846 115.765 101.608 129.702 76.7977C129.684 76.485 129.777 75.3814 129.768 75.2251C129.406 68.9708 115.508 70.0894 112.068 70.2886C88.302 71.6649 70.8183 92.1308 72.1766 115.584C72.2399 116.679 72.6951 121.83 72.7585 122.924C73.3091 124.304 76.377 128.519 77.3152 128.465L87.6348 127.867C87.7911 127.858 88.6725 129.533 88.8742 130.306C88.8832 130.462 88.9285 131.244 88.9375 131.4C89.4627 140.469 79 146.723 71.3385 147.166C55.8591 148.063 48.1282 133.763 47.3495 120.317C45.2126 83.4164 82.1051 59.4733 115.097 57.5627C123.696 57.0647 131.548 59.9045 139.678 59.4336C148.278 58.9356 154.043 50.1301 163.425 49.5868C166.708 49.3967 172.217 49.7052 172.462 53.9268C172.896 61.432 154.707 58.8771 155.232 67.9458C155.603 74.3565 168.286 84.7606 171.315 91.0173C176.501 102.012 177.836 111.505 178.533 123.545C180.389 155.598 164.71 204.512 125.62 206.775C114.519 207.418 103.268 200.069 102.571 188.029C102.417 185.371 102.859 184.875 105.517 184.721C109.426 184.495 113.095 185.537 117.16 185.302C147.65 183.536 159.925 146.272 158.44 120.629C158.096 114.688 152.376 83.6425 143.776 84.1405C142.213 84.2311 141.467 84.9018 140.776 86.5106C138.546 91.3462 128.869 113.87 126.951 118.688C125.292 122.549 112.968 153.541 111.3 157.246C102.93 177.968 91.1287 209.871 64.8606 211.392C52.0393 212.135 39.6944 204.849 38.8794 190.777ZM177.312 171.307C176.053 149.574 198.492 100.896 222.884 99.4833C228.356 99.1664 231.019 104.503 235.709 104.231C239.775 103.996 242.179 99.464 247.026 99.1833C249.841 99.0203 253.804 99.7321 254.021 103.485C254.664 114.586 228.898 141.022 229.957 159.316C230.102 161.818 230.644 163.042 233.302 162.888C242.839 162.335 248.179 146.181 253.978 140.668C254.3 140.806 254.962 141.396 255.136 141.699C255.136 141.699 255.154 142.012 255.163 142.168C255.824 153.582 233.45 181.705 220.629 182.447C212.655 182.909 211.57 172.304 207.817 172.521C207.661 172.531 206.879 172.576 206.732 172.741C201.402 178.227 196.246 184.016 188.272 184.478C180.61 184.922 177.692 177.874 177.312 171.307ZM196.653 161.245C196.662 161.401 196.68 161.714 196.68 161.714C197.231 163.094 198.801 165.827 200.521 165.727C209.746 165.193 229.985 119.153 229.704 114.306C229.559 111.804 228.65 109.66 225.68 109.832C211.451 110.656 196.037 150.613 196.653 161.245ZM247.749 165.189C246.183 138.139 275.562 63.0168 308.084 61.1333C314.182 60.7802 318.447 63.9846 318.8 70.0826C320.9 106.358 264.103 122.511 266.023 155.659C266.195 158.63 267.176 162.024 271.085 161.798C281.092 161.218 294.95 143.159 299.673 138.022L301.236 137.931C302.006 151.222 274.821 180.25 261.218 181.038C252.149 181.563 248.202 173.007 247.749 165.189ZM304.156 71.8719C294.462 72.4333 273.952 113.783 274.423 121.913C281.615 121.497 307.079 84.4101 306.518 74.7159C306.418 72.996 306.189 71.7542 304.156 71.8719ZM294.011 157.333C292.553 132.159 312.535 95.2327 340.21 93.63C347.871 93.1863 355.429 96.357 355.936 105.113C357.747 136.384 311.479 133.887 312.493 151.399C312.9 158.435 315.418 161.27 322.61 160.853C337.621 159.984 348.983 144.893 357.647 134.665C357.647 134.665 357.96 134.646 358.116 134.637C358.272 134.628 358.585 134.61 358.585 134.61C358.907 134.748 359.569 135.338 359.743 135.641C353.132 154.222 334.984 176.766 313.563 178.007C300.429 178.767 294.681 168.903 294.011 157.333ZM339.604 102.137C329.91 102.698 315.755 123.756 316.317 133.45C327.418 132.807 344.17 118.659 343.49 106.932C343.336 104.274 342.888 101.947 339.604 102.137ZM336.384 206.806C334.954 182.102 376.834 184.697 375.512 161.869L373.636 161.977C368.306 167.463 362.736 174.218 354.605 174.689C348.038 175.069 343.774 171.865 343.366 164.828C342.497 149.818 356.042 131.777 361.783 119.835C364.851 113.225 366.305 92.2757 375.217 91.7595C379.439 91.5151 385.342 93.2127 385.65 98.5288C386.782 118.074 361.476 133.502 362.59 152.733C362.689 154.453 364.205 156.248 365.925 156.149C388.128 154.863 392.104 90.7816 414.307 89.4958C417.278 89.3238 421.71 90.0084 421.927 93.761C422.552 104.55 395.686 136.384 396.9 157.336C397.056 157.327 397.221 157.474 397.378 157.465C397.681 157.29 399.052 156.583 399.347 156.253C406.003 149.278 413.325 137.559 420.946 130.999C420.946 130.999 421.259 130.981 421.415 130.972C421.572 130.963 421.884 130.944 422.041 130.935C422.206 131.083 423.024 131.663 423.042 131.976C423.042 131.976 423.217 132.279 423.226 132.436C424.068 146.977 394.995 167.8 389.146 177.865C379.714 193.786 377.53 218.386 353.92 219.753C344.852 220.279 336.964 216.813 336.384 206.806ZM350.663 201.43C350.79 203.619 351.451 204.208 353.64 204.081C359.113 203.765 365.44 193.828 365.16 188.981C359.218 189.325 353.924 195.437 350.729 199.857C350.59 200.179 350.654 201.274 350.663 201.43Z" fill="black"/>
</svg>
