<svg width="457" height="270" viewBox="0 0 457 270" fill="none" xmlns="http://www.w3.org/2000/svg">
<path d="M30.8799 169.035C30.735 166.534 29.4281 157.51 34.4315 157.22C40.5294 156.867 44.2476 164.182 51.44 163.766C67.5448 162.833 76.805 143.942 83.3002 131.486C96.2635 106.104 107.765 79.8666 121.703 55.0565C121.685 54.7438 121.778 53.6402 121.769 53.4839C121.406 47.2296 107.509 48.3482 104.069 48.5474C80.3025 49.9237 62.8188 70.3896 64.177 93.8432C64.2404 94.9377 64.6956 100.088 64.759 101.183C65.3096 102.563 68.3775 106.778 69.3157 106.724L79.6353 106.126C79.7916 106.117 80.673 107.792 80.8746 108.564C80.8837 108.721 80.929 109.503 80.938 109.659C81.4632 118.728 71.0005 124.981 63.339 125.425C47.8596 126.321 40.1287 112.022 39.35 98.5755C37.213 61.6752 74.1056 37.7321 107.097 35.8215C115.697 35.3235 123.548 38.1633 131.679 37.6924C140.279 37.1944 146.044 28.3889 155.425 27.8456C158.709 27.6554 164.218 27.964 164.462 32.1856C164.897 39.6908 146.707 37.1359 147.233 46.2046C147.604 52.6152 160.286 63.0194 163.316 69.2761C168.502 80.2713 169.836 89.7638 170.533 101.803C172.39 133.857 156.71 182.77 117.621 185.034C106.519 185.677 95.269 178.328 94.5717 166.288C94.4178 163.63 94.8597 163.134 97.5178 162.98C101.427 162.754 105.095 163.796 109.161 163.561C139.65 161.795 151.925 124.531 150.44 98.888C150.096 92.9464 144.376 61.9013 135.777 62.3993C134.213 62.4899 133.468 63.1606 132.776 64.7694C130.546 69.605 120.869 92.1289 118.952 96.9464C117.293 100.808 104.968 131.8 103.3 135.504C94.9304 156.227 83.1292 188.13 56.8611 189.651C44.0398 190.394 31.6948 183.108 30.8799 169.035ZM169.312 149.566C168.054 127.832 190.493 79.1546 214.884 77.7421C220.357 77.4251 223.019 82.7618 227.71 82.4902C231.775 82.2547 234.18 77.7228 239.027 77.4421C241.841 77.2791 245.805 77.9909 246.022 81.7435C246.665 92.8448 220.898 119.281 221.958 137.575C222.103 140.077 222.644 141.3 225.302 141.147C234.84 140.594 240.18 124.44 245.979 118.927C246.301 119.065 246.962 119.654 247.137 119.958C247.137 119.958 247.155 120.271 247.164 120.427C247.825 131.841 225.451 159.964 212.629 160.706C204.655 161.168 203.57 150.563 199.818 150.78C199.661 150.789 198.88 150.835 198.732 151C193.402 156.486 188.247 162.275 180.272 162.737C172.611 163.181 169.693 156.133 169.312 149.566ZM188.654 139.504C188.663 139.66 188.681 139.973 188.681 139.973C189.231 141.353 190.802 144.086 192.521 143.986C201.747 143.452 221.985 97.4117 221.704 92.5646C221.559 90.0629 220.651 87.9192 217.68 88.0912C203.452 88.9152 188.038 128.871 188.654 139.504ZM239.75 143.447C238.183 116.398 267.562 41.2756 300.085 39.3921C306.183 39.039 310.447 42.2434 310.8 48.3414C312.901 84.6163 256.104 100.77 258.024 133.918C258.196 136.888 259.177 140.283 263.086 140.057C273.092 139.477 286.95 121.418 291.673 116.281L293.237 116.19C294.006 129.481 266.821 158.509 253.218 159.297C244.149 159.822 240.202 151.265 239.75 143.447ZM296.157 50.1307C286.463 50.6921 265.953 92.0416 266.424 100.172C273.616 99.7557 299.079 62.6689 298.518 52.9747C298.418 51.2548 298.19 50.013 296.157 50.1307ZM286.011 135.591C284.553 110.418 304.535 73.4915 332.21 71.8888C339.872 71.4451 347.429 74.6157 347.936 83.3718C349.747 114.643 303.479 112.146 304.493 129.658C304.901 136.694 307.418 139.529 314.611 139.112C329.621 138.243 340.984 123.152 349.648 112.923C349.648 112.923 349.96 112.905 350.117 112.896C350.273 112.887 350.586 112.869 350.586 112.869C350.907 113.007 351.569 113.596 351.744 113.9C345.132 132.481 326.985 155.025 305.564 156.266C292.43 157.026 286.681 147.162 286.011 135.591ZM331.605 80.3955C321.911 80.9569 307.756 102.014 308.317 111.709C319.419 111.066 336.17 96.9175 335.491 85.1907C335.337 82.5326 334.888 80.2053 331.605 80.3955ZM328.385 185.065C326.954 160.361 368.835 162.956 367.513 140.127L365.637 140.236C360.307 145.722 354.736 152.477 346.606 152.947C340.039 153.328 335.774 150.123 335.367 143.087C334.497 128.077 348.043 110.036 353.783 98.0938C356.852 91.4839 358.306 70.5345 367.218 70.0183C371.44 69.7739 377.343 71.4715 377.65 76.7876C378.782 96.3323 353.476 111.76 354.59 130.992C354.69 132.712 356.206 134.507 357.926 134.407C380.128 133.122 384.105 69.0404 406.307 67.7546C409.278 67.5826 413.71 68.2672 413.928 72.0197C414.553 82.8084 387.687 114.642 388.9 135.594C389.056 135.585 389.222 135.733 389.378 135.724C389.682 135.549 391.053 134.842 391.347 134.511C398.003 127.537 405.326 115.817 412.947 109.258C412.947 109.258 413.259 109.239 413.416 109.23C413.572 109.221 413.885 109.203 414.041 109.194C414.207 109.341 415.025 109.922 415.043 110.234C415.043 110.234 415.217 110.538 415.226 110.694C416.068 125.236 386.996 146.059 381.147 156.124C371.715 172.045 369.531 196.645 345.921 198.012C336.852 198.537 328.964 195.072 328.385 185.065ZM342.663 179.689C342.79 181.878 343.452 182.467 345.641 182.34C351.113 182.023 357.441 172.087 357.16 167.24C351.218 167.584 345.925 173.695 342.729 178.116C342.591 178.438 342.654 179.532 342.663 179.689Z" fill="#F3EEDE"/>
<path d="M172.336 172.037C174.543 171.753 176.088 172.818 176.216 175.039C176.982 188.254 156.426 195.599 157.125 207.675C157.188 208.757 157.544 209.973 158.959 209.792C161.232 209.5 164.053 206.651 166.261 204.076C168.883 198.032 173.735 192.271 173.795 185.621C174.528 184.495 175.201 184.294 176.446 184.134C178.087 183.923 179.824 184.389 179.936 186.325C180.358 193.616 171.201 199.899 171.61 206.963C171.65 207.646 172.412 208.008 172.978 207.935C180.222 207.005 183.067 183.284 190.707 182.303C192.122 182.122 193.04 182.234 193.126 183.715C193.136 183.886 193.119 184.576 193.126 184.69C189.854 190.217 184.327 198.157 184.7 204.594C184.723 204.993 184.693 206.431 185.655 206.308C187.325 206.093 189.315 203.358 190.819 200.963C193.197 194.879 195.257 188.779 197.384 182.594C197.781 181.567 198.96 181.243 199.808 181.134C201.902 180.866 202.906 183.434 204.095 183.281C206.188 183.012 207.618 180.132 210.165 179.805C212.485 179.507 213.763 180.893 214.89 182.642C214.947 182.635 215.233 182.655 215.29 182.648C217.723 182.335 219.333 178.628 222.219 178.258C224.03 178.025 224.925 178.714 226.142 180.049C226.159 180.334 226.285 181.523 226.299 181.751C226.704 188.757 218.589 194.333 218.972 200.94C218.998 201.396 218.931 202.208 219.826 201.921C223.227 200.887 224.563 195.285 227.183 193.517C230.189 186.648 233.166 179.765 235.767 172.731C236.607 170.5 236.596 166.37 238.324 164.714L239.852 164.518C241.606 164.292 242.924 164.41 243.04 166.404C243.05 166.575 243.096 167.37 243.05 167.55C242.506 168.997 239.99 175.747 239.446 177.194C239.4 177.373 239.163 178.205 239.116 178.384C239.174 178.377 239.459 178.398 239.516 178.391C241.779 178.1 243.398 175.539 246.001 175.205C249.227 174.791 250.061 176.406 250.236 179.425C250.484 183.697 248.848 187.924 247.141 191.93L247.151 192.101C247.184 192.671 247.697 192.663 248.093 192.612C249.153 192.475 250.072 191.59 250.837 190.702C252.33 187.484 254.103 184.418 255.167 182.062C256.38 179.381 255.894 173.935 259.459 173.478C261.157 173.26 262.674 173.868 262.776 175.634C263.185 182.697 255.166 188.949 255.575 196.012L255.628 196.923C255.695 197.086 256.274 197.241 256.387 197.227C258.987 196.471 260.756 192.03 262.434 189.619C264.452 184.285 266.263 178.933 268.126 173.515C268.523 172.489 269.702 172.166 270.551 172.057C273.154 171.723 273.502 174.777 275.086 174.573C277.294 174.29 279.096 170.96 281.643 170.633C284.133 170.314 285.933 171.861 286.074 174.31C286.46 180.975 277.959 186.772 278.325 193.095C278.359 193.664 278.685 194.368 279.42 194.273C283.114 193.799 284.243 187.301 287.06 185.513C289.999 177.395 296.007 168.386 302.105 167.603C304.029 167.356 305.051 169.233 306.692 169.023C308.22 168.826 309.259 167.086 310.957 166.868C312.372 166.687 313.29 166.799 313.376 168.28C313.386 168.451 313.426 169.134 313.376 169.255C310.211 174.639 305.381 182.438 304.338 189.007C304.821 187.949 305.533 186.773 306.443 185.642C307.728 184.055 309.243 182.383 311.197 181.05C313.031 179.74 316.274 178.565 318.967 180.043C324.644 184.11 324.118 189.905 324.113 194.809C323.897 198.348 323.171 201.848 321.93 205.241C321.801 205.589 321.667 205.938 321.527 206.284C320.561 209.165 319.068 211.961 317.711 213.773C316.598 215.278 315.551 216.216 314.631 216.956C314.056 217.415 313.521 217.8 312.989 218.188C312.933 218.229 312.876 218.27 312.821 218.311C312.522 218.533 312.115 218.832 311.622 219.172C309.625 220.597 305.796 222.687 302.042 223.39C300.393 223.727 298.46 223.884 296.666 223.857C294.092 223.828 291.81 223.457 290.642 223.38C288.592 223.248 286.332 222.761 284.39 222.255C282.536 221.775 280.945 221.294 280.008 221.15C278.882 220.974 277.976 220.668 276.641 220.211C275.714 219.893 274.58 219.5 273.031 219.03C271.237 218.487 269.995 218.053 268.933 217.693C267.444 217.19 266.314 216.819 264.558 216.56C262.606 216.273 260.588 215.987 259.018 215.692C258.657 215.624 258.265 215.561 257.855 215.504C257.504 215.454 257.111 215.408 256.682 215.366C255.447 215.248 254.38 215.19 253.199 215.079C252.33 214.993 251.562 214.852 250.858 214.732C250.629 214.694 250.45 214.66 250.26 214.629C249.546 214.618 248.804 214.613 248.036 214.615C247.911 214.633 247.776 214.653 247.637 214.675C246.967 214.784 246.186 214.922 245.154 215.002C243.462 215.129 242.195 215.094 240.646 215.072C239.48 215.055 238.329 215.041 236.912 215.123C235.926 215.18 234.922 215.277 233.841 215.381C232.231 215.536 230.7 215.697 229.612 215.721C229.206 215.73 228.854 215.679 228.504 215.628L228.499 215.627C228.476 215.623 228.453 215.62 228.43 215.617C225.797 215.846 223.118 216.108 220.505 216.389C220.276 216.426 220.044 216.465 219.814 216.503C218.686 216.687 217.596 216.87 216.897 217.057C216.143 217.259 214.182 217.515 212.163 217.796C210.838 217.98 209.457 218.178 208.326 218.371C207.674 218.484 207.049 218.474 206.404 218.466C205.804 218.458 205.184 218.451 204.511 218.545C204.174 218.592 203.811 218.663 203.423 218.741C203.081 218.81 202.724 218.883 202.348 218.946C201.998 219.005 201.214 219.054 200.208 219.122C199.587 219.163 198.879 219.213 198.137 219.274C196.188 219.563 194.237 219.858 192.287 220.163C191.884 220.284 191.535 220.42 191.263 220.568C191.067 220.675 190.902 220.793 190.733 220.914C190.504 221.079 190.267 221.249 189.935 221.405C189.676 221.526 189.364 221.604 189.152 221.599C189.053 221.596 188.976 221.575 188.906 221.556C188.826 221.536 188.754 221.518 188.67 221.531C188.609 221.54 188.546 221.571 188.47 221.609C188.347 221.671 188.188 221.752 187.939 221.79C187.012 221.93 185.958 222.066 184.929 222.202C183.786 222.353 182.671 222.504 181.776 222.661C180.777 222.837 179.35 222.98 177.931 223.13C176.925 223.237 175.923 223.348 175.071 223.471C174.232 223.592 173.391 223.787 172.542 223.986C171.53 224.223 170.566 224.455 169.739 224.535C169.572 224.551 169.356 224.499 169.086 224.434C168.894 224.389 168.673 224.336 168.426 224.297C167.372 224.499 166.31 224.704 165.27 224.908C165.235 224.927 165.199 224.947 165.162 224.968L165.161 224.97C164.35 225.43 163.228 226.061 161.542 226.184C161.116 226.214 160.838 226.163 160.588 226.116C160.343 226.069 160.123 226.027 159.821 226.076C159.477 226.131 159.087 226.28 158.641 226.449C158.021 226.684 157.337 226.949 156.628 227.02C156.58 227.024 156.527 227.029 156.473 227.035C155.953 227.089 155.231 227.161 154.428 227.153C152.184 227.656 149.99 228.177 147.813 228.744C144.141 229.708 140.543 230.766 137.117 232.159C135.428 232.846 133.811 233.416 132.594 233.694C131.26 234.046 130.45 234.043 130.08 233.598C129.73 233.154 129.91 232.227 131.006 230.996C131.955 229.859 133.615 228.652 135.434 227.768C138.302 226.364 141.392 225.169 144.281 224.16C144.436 224.099 144.592 224.038 144.749 223.978C145.951 223.521 146.926 223.063 147.996 222.589C148.239 222.481 148.485 222.374 148.733 222.267C150.591 221.451 154.316 220.629 156.333 220.23C156.37 220.223 156.409 220.214 156.446 220.206C156.932 220.108 157.394 220.007 157.938 219.888C159.189 219.617 160.943 219.23 164.53 218.686C165.567 218.47 166.624 218.258 167.673 218.057C178.924 215.909 190.248 214.512 201.541 213.471C201.683 213.453 201.829 213.434 201.975 213.415C204.81 213.055 208.304 212.645 210.528 212.527C213.319 212.378 215.257 212.324 216.81 212.291C225.772 211.726 234.752 211.317 243.725 211.208C246.592 211.178 249.353 211.182 252.214 211.27C254.233 211.334 256.544 211.449 258.616 211.724C259.094 211.787 259.57 211.856 260.043 211.928C261.557 212.107 262.991 212.31 264.308 212.521C266.165 212.82 267.792 213.138 269.123 213.454C272.322 214.214 275.819 215.364 278.393 216.176C278.811 216.309 279.214 216.435 279.58 216.548C281.657 217.087 283.729 217.592 285.797 218.004C285.928 218.058 286.06 218.114 286.193 218.169C287.867 218.838 290.049 219.314 293.477 219.509C294.967 219.581 296.697 219.582 298.704 219.345C299.994 219.186 300.665 219.151 301.221 219.127C301.384 219.119 301.539 219.11 301.694 219.093C302.222 219.035 302.749 218.798 303.352 218.492C304.131 218.094 305.03 217.592 306.311 217.114C308.314 216.353 309.637 215.487 310.623 214.718C311.583 213.952 312.111 213.258 312.538 212.664C312.782 212.32 312.992 212 313.217 211.689C313.958 210.683 315.06 209.267 315.853 208.114C316.503 207.214 317.344 205.142 317.734 203.513C317.888 202.899 318.147 202.082 318.399 201.107C318.66 200.099 318.911 198.921 319.038 197.644C319.335 194.431 319.162 192.751 319.03 191.451C318.987 191.075 318.94 190.734 318.884 190.404C318.705 189.318 318.421 188.058 317.946 186.948C317.401 185.607 316.537 184.807 316.12 184.76C315.666 184.219 313.878 185.056 312.113 186.506C309.129 191.507 304.662 195.141 301.486 200.22C297.678 206.332 297.437 214.971 288.721 216.09C285.552 216.497 282.977 215.335 282.779 211.917C282.255 202.86 296.987 202.289 296.559 194.884C294.125 195.196 292.585 199.124 289.473 199.523C289.246 199.553 288.058 199.705 287.771 199.685C285.538 198.537 285.346 197.184 285.214 194.906C285.161 193.995 285.226 192.954 285.393 191.823C282.546 196.236 277.928 201.007 275.212 201.356C272.665 201.683 271.238 200.66 271.086 198.04C270.631 190.18 280.501 182.428 280.119 175.821C280.089 175.308 280.099 174.503 279.26 174.783C274.44 176.205 271.17 183.741 269.36 187.933C268.803 189.154 264.542 199.222 263.985 200.444C263.228 202.148 262.116 202.635 260.418 202.853C259.343 202.991 257.652 203.323 257.566 201.842C257.563 201.785 257.596 201.379 257.589 201.265C257.661 201.11 257.729 200.954 257.8 200.799C256.016 202.677 254.181 204.052 252.746 204.237C250.086 204.578 248.358 203.308 248.203 200.631C248.109 199.001 248.423 197.238 248.972 195.438C246.823 196.85 244.376 197.991 243.01 199.347C240.259 202.053 237.986 206.132 233.911 206.655C230.968 207.033 230.882 206.526 228.47 204.254C226.991 206.28 226.588 207.193 224.494 207.462C223.193 207.629 222.167 207.646 222.081 206.165C222.014 205.007 222.234 204.659 222.723 203.674C220.228 206.506 217.432 208.77 215.449 209.025C215.223 209.054 214.034 209.206 213.748 209.185C211.968 207.979 211.718 207.61 211.596 205.503C211.117 197.243 220.88 190.595 220.432 182.849C216.64 183.336 213.519 188.499 212.002 191.85C210.935 194.111 206.261 204.923 205.311 207.227C204.404 209.294 203.202 210.195 201.108 210.464C200.033 210.602 198.618 210.783 198.538 209.416C198.486 208.505 198.655 208.483 199.212 207.264C201.791 201.596 208.837 191.338 208.435 184.389C207.529 184.505 206.937 184.122 206.298 184.892C204.746 186.641 202.157 189.211 200.991 191.714C200.684 192.327 199.272 195.492 198.968 196.162C198.362 197.503 193.852 208.239 193.242 209.522C192.485 211.226 191.373 211.714 189.675 211.932C188.6 212.07 186.91 212.4 186.824 210.92C186.821 210.862 186.854 210.457 186.847 210.343C187.019 209.97 187.187 209.596 187.355 209.223C185.33 211.47 183.187 213.166 181.56 213.375C177.202 213.934 177.671 209.227 176.312 209.401L175.916 209.452C173.938 211.714 171.826 214.624 168.713 215.024C166.337 215.329 164.796 214.322 164.644 211.702C164.615 211.193 164.618 210.687 164.648 210.187C161.596 213.732 157.87 216.76 155.39 217.079C152.107 217.5 150.678 214.47 150.513 211.622C150.44 210.371 150.548 208.823 150.816 207.071C148.41 209.066 144.95 210.409 143.26 212.152C140.402 214.986 138.463 218.908 134.162 219.46C131.446 219.809 131.253 219.432 129.083 217.415C129.083 217.415 128.967 217.373 128.911 217.38C125.062 217.874 125.955 234.286 120.749 234.955C118.768 235.209 117.137 234.614 117.018 232.563C116.92 230.855 117.62 229.158 118.27 227.582L130.622 197.706C131.672 195.161 131.142 189.951 134.48 189.522C136.631 189.246 137.941 192.176 139.016 192.038C141.337 191.74 142.966 188.374 145.683 188.026C148.399 187.677 150.293 188.869 150.461 191.774C150.718 196.217 147.098 200.641 147.335 204.742C147.371 205.369 147.778 205.489 148.4 205.409C149.478 205.271 150.897 203.634 151.719 202.669C154.792 190.397 163.22 173.207 172.336 172.037ZM292.852 204.714C290.758 204.982 289.069 207.322 287.96 208.842C287.91 208.963 287.933 209.361 287.936 209.419C287.982 210.216 288.222 210.415 288.957 210.321C289.07 210.306 289.464 210.199 289.521 210.192C290.806 208.764 292.974 206.821 292.852 204.714ZM143.81 192.111C139.113 192.714 131.456 207.182 131.673 210.942C131.686 211.17 131.806 212.245 131.875 212.466C132.205 213.227 132.714 213.161 133.337 213.081C137.977 212.485 145.065 197.057 144.874 193.753C144.861 193.525 144.752 192.621 144.742 192.45C144.599 191.953 144.149 192.068 143.81 192.111ZM243.562 179.363C238.525 180.01 233.036 192.535 231.446 196.584C231.459 196.812 231.456 197.731 231.469 197.959C231.555 199.44 231.728 200.45 233.369 200.24C237.67 199.687 245.257 185 244.997 180.499C244.951 179.702 244.298 179.269 243.562 179.363ZM302.666 171.375C297.573 172.029 291.956 186.293 292.226 190.964C292.273 191.761 292.662 192.573 293.624 192.449C297.529 191.948 304.664 175.365 304.536 173.144C304.46 171.834 304.081 171.193 302.666 171.375ZM170.917 176.064C167.408 176.514 159.99 192.156 160.161 195.119C162.764 194.785 171.976 180.576 171.772 177.044C171.735 176.418 171.652 175.97 170.917 176.064ZM264.592 161.686C266.233 161.475 267.288 161.971 267.397 163.851C267.545 166.414 265.093 169.368 262.603 169.687C261.188 169.869 260.454 168.988 260.378 167.678C260.23 165.115 261.932 162.027 264.592 161.686Z" fill="#F3EEDE"/>
</svg>
